<?xml version="1.0" encoding="utf-8"?>
<!-- Generator: Adobe Illustrator 21.1.0, SVG Export Plug-In . SVG Version: 6.00 Build 0)  -->
<svg version="1.1" id="Layer_1" xmlns="http://www.w3.org/2000/svg" xmlns:xlink="http://www.w3.org/1999/xlink" x="0px" y="0px"
	 viewBox="0 0 500 287" style="enable-background:new 0 0 500 287;" xml:space="preserve">
<style type="text/css">
	.st0{fill:#FFFFFF;}
</style>
<g>
	<g>
		<g>
			<g>
				<path class="st0" d="M277.7,137.1v28.2l-13.5-0.1c0-9.2,0-18.4,0-27.5l-0.1-3.8c0-5.5-3.4-9.7-8.5-10.1c-1.2-0.1-2.3,0-3.4,0.3
					c-0.4,0.1-0.9,0.2-1.3,0.4c-1.2,0.5-2.4,1.3-3.2,2.3c-0.4,0.5-0.8,1-1,1.6c-0.7,1.4-0.9,2.9-1.1,4.5c0,0.4-0.1,0.9-0.1,1.3
					c0,0.6,0,1.2,0,1.8c0,9.7,0,19.5,0,29.2h-13.4c0-9.7,0-19.5,0-29.2c0-0.6,0-1.2,0-1.8c0-0.4,0-0.9-0.1-1.3
					c-0.1-1.6-0.4-3.2-1.1-4.5c-0.3-0.6-0.6-1.1-1-1.6c-0.9-1-2-1.8-3.2-2.3c-0.4-0.2-0.8-0.3-1.3-0.4c-1.1-0.3-2.2-0.4-3.4-0.3
					c-5.1,0.4-8.5,4.6-8.5,10.1l-0.1,3.8c0,9.2,0,18.4,0,27.5l-13.5,0.1v-28.2c0-1.3,0-2.7,0.1-4.1c0-0.3,0-0.6,0.1-0.9
					c0.5-7.4,3.4-13.7,9.9-17.6c5.6-3.3,13-4.4,19.2-2.4c4,1.2,6.6,3.7,9.4,6.7l0.1,0.2l0.1-0.2c2.7-3.1,5.4-5.5,9.4-6.7
					c6.3-1.9,13.6-0.9,19.2,2.4c6.5,3.9,9.4,10.2,9.9,17.6c0,0.3,0,0.6,0,0.9C277.7,134.4,277.7,135.8,277.7,137.1z"/>
				<path class="st0" d="M245.7,137.8c0,9.2,0,18.3,0,27.5h-0.1c0-9.7,0-19.5,0-29.2c0-0.6,0-1.2,0-1.8c0-0.4,0-0.9,0.1-1.3l0,0.1
					L245.7,137.8z"/>
			</g>
		</g>
	</g>
</g>
<path class="st0" d="M452.5,126.3v21.8c0,5.7,4.1,5.8,11.9,5.4v12.3c-18.6,2.1-25.4-3.2-25.4-17.6v-21.8h-9.1v-13h9.1v-6.4
	l13.5-13.6v20h11.9v13H452.5z"/>
<path class="st0" d="M322.3,113.2l-11.6,35.2l-13.6-35.2h-14.8l21.5,50.6c-2.5,7.1-6.5,10.1-13.7,10v12.6
	c13.4,0.7,22.2-5.9,27.6-20.9l19-52.3L322.3,113.2z"/>
<rect x="408.6" y="113.2" class="st0" width="13.5" height="52.3"/>
<path class="st0" d="M391.5,119.8c-4.9-5.3-11-8.1-18-8.1c-7.3,0-13,2.5-16.9,7.6V92.3h-0.4v0l-13.1,13.1v60.1h13.5v-6.2
	c4,5.1,9.6,7.6,16.9,7.6c7,0,13.1-2.6,18-7.9c5-5.3,7.5-11.9,7.5-19.7C399.1,131.6,396.6,125.2,391.5,119.8z M381.4,150
	c-2.7,2.7-6.2,4.1-10.4,4.1c-4.2,0-7.6-1.4-10.4-4.1c-2.7-2.8-4.1-6.4-4.1-10.7s1.4-7.8,4.1-10.6c2.7-2.8,6.2-4.2,10.4-4.2
	c4.2,0,7.6,1.4,10.4,4.2c2.8,2.7,4.2,6.3,4.2,10.6S384.2,147.2,381.4,150z"/>
<rect x="408.3" y="89.9" transform="matrix(0.708 -0.7062 0.7062 0.708 52.8247 321.5906)" class="st0" width="14" height="14.1"/>
<path class="st0" d="M175.2,136.7l-26.1,26.1h0c-11.2-11.1-26.5-18-43.4-18s-32.3,6.9-43.4,18h0l-26-26.1l69.5-69.5L175.2,136.7z"/>
<path class="st0" d="M141.5,170.5l-35.7,35.7l0,0L70,170.5c9.1-9.2,21.8-14.9,35.8-14.8h0c2.4,0,4.8,0.2,7.1,0.5
	C124,157.7,134,162.9,141.5,170.5z"/>
</svg>
